<svg viewBox="0 0 175 32" fill="none" xmlns="http://www.w3.org/2000/svg">
<g clip-path="url(#clip0_18496_218)">
<path d="M45.605 16.035C44.501 17.104 42.8128 17.6415 40.5404 17.6415H36.8018V25.7612H34.2607V6.3147H40.5404C42.7368 6.3147 44.4075 6.84628 45.5466 7.9036C46.6916 8.96676 47.264 10.3337 47.264 12.0044C47.264 13.675 46.7091 14.966 45.605 16.035ZM43.6656 14.6272C44.3374 14.0139 44.6704 13.1376 44.6704 12.0044C44.6704 9.60349 43.2918 8.40597 40.5404 8.40597H36.8018V15.5502H40.5404C41.9541 15.5502 42.9939 15.2406 43.6656 14.6272Z" fill="black"/>
<path d="M50.506 7.48305C50.1731 7.15008 50.0037 6.74117 50.0037 6.25632C50.0037 5.77147 50.1731 5.36256 50.506 5.02959C50.839 4.69663 51.2479 4.52722 51.7328 4.52722C52.2176 4.52722 52.5915 4.69663 52.9186 5.02959C53.2457 5.36256 53.4093 5.77147 53.4093 6.25632C53.4093 6.74117 53.2457 7.15008 52.9186 7.48305C52.5915 7.81601 52.2001 7.98542 51.7328 7.98542C51.2654 7.98542 50.839 7.81601 50.506 7.48305ZM52.9595 10.4681V25.7612H50.4184V10.4681H52.9595Z" fill="black"/>
<path d="M65.2619 25.7612L61.6343 20.0715L58.1469 25.7612H55.4949L60.431 18.173L55.4949 10.4739H58.3689L61.9965 16.1402L65.4547 10.4739H68.1068L63.194 18.0328L68.1301 25.7612H65.2561H65.2619Z" fill="black"/>
<path d="M70.7294 7.48305C70.3965 7.15008 70.2271 6.74117 70.2271 6.25632C70.2271 5.77147 70.3965 5.36256 70.7294 5.02959C71.0624 4.69663 71.4713 4.52722 71.9561 4.52722C72.441 4.52722 72.8149 4.69663 73.142 5.02959C73.4691 5.36256 73.6327 5.77147 73.6327 6.25632C73.6327 6.74117 73.4691 7.15008 73.142 7.48305C72.8149 7.81601 72.4176 7.98542 71.9561 7.98542C71.4947 7.98542 71.0624 7.81601 70.7294 7.48305ZM73.1829 10.4681V25.7612H70.6418V10.4681H73.1829Z" fill="black"/>
<path d="M91.3793 19.061H79.1588C79.2523 20.5682 79.7664 21.7423 80.7068 22.5893C81.6473 23.4364 82.7864 23.857 84.1241 23.857C85.2224 23.857 86.1395 23.5999 86.8697 23.0917C87.5999 22.5835 88.1198 21.8942 88.4177 21.0413H91.1515C90.7426 22.5134 89.9248 23.7051 88.6981 24.628C87.4713 25.551 85.9467 26.0125 84.1241 26.0125C82.6754 26.0125 81.3786 25.6854 80.2337 25.0369C79.0887 24.3885 78.195 23.4597 77.5407 22.2622C76.8865 21.0647 76.5652 19.6744 76.5652 18.0913C76.5652 16.5083 76.8806 15.1238 77.5115 13.9322C78.1424 12.7405 79.0303 11.8234 80.1753 11.1866C81.3202 10.5499 82.6345 10.2228 84.1241 10.2228C85.6137 10.2228 86.858 10.5382 87.9737 11.1691C89.0895 11.8 89.9482 12.6704 90.5557 13.7803C91.1574 14.8843 91.4611 16.1403 91.4611 17.5306C91.4611 18.0154 91.4319 18.5236 91.3793 19.0669V19.061ZM88.1957 14.4988C87.7693 13.8036 87.1851 13.2721 86.4549 12.9099C85.7189 12.5477 84.9069 12.3666 84.0132 12.3666C82.728 12.3666 81.6356 12.7755 80.7361 13.5934C79.8365 14.4112 79.3165 15.5444 79.188 16.999H88.8441C88.8441 16.0293 88.628 15.1998 88.2015 14.5046L88.1957 14.4988Z" fill="black"/>
<path d="M106.153 16.035C105.049 17.104 103.36 17.6415 101.088 17.6415H97.3494V25.7612H94.8083V6.3147H101.088C103.284 6.3147 104.949 6.84628 106.094 7.9036C107.239 8.96092 107.812 10.3337 107.812 12.0044C107.812 13.675 107.257 14.966 106.153 16.035ZM104.213 14.6272C104.885 14.0139 105.218 13.1376 105.218 12.0044C105.218 9.60349 103.839 8.40597 101.088 8.40597H97.3494V15.5502H101.088C102.502 15.5502 103.541 15.2406 104.213 14.6272Z" fill="black"/>
<path d="M113.741 25.0369C112.578 24.3885 111.667 23.4597 111.007 22.2622C110.347 21.0647 110.014 19.6744 110.014 18.0913C110.014 16.5083 110.353 15.1472 111.03 13.9497C111.708 12.7522 112.637 11.8292 113.805 11.1866C114.979 10.5441 116.288 10.2228 117.736 10.2228C119.185 10.2228 120.499 10.5441 121.668 11.1866C122.842 11.8292 123.765 12.7463 124.443 13.9322C125.12 15.1238 125.459 16.5083 125.459 18.0913C125.459 19.6744 125.108 21.0647 124.413 22.2622C123.718 23.4597 122.772 24.3885 121.58 25.0369C120.389 25.6854 119.068 26.0125 117.62 26.0125C116.171 26.0125 114.892 25.6854 113.729 25.0369H113.741ZM120.202 23.1384C121.002 22.712 121.65 22.0694 122.141 21.2107C122.632 20.3579 122.883 19.3122 122.883 18.0855C122.883 16.8588 122.643 15.819 122.158 14.9603C121.674 14.1074 121.043 13.4648 120.26 13.0501C119.477 12.6295 118.63 12.425 117.719 12.425C116.808 12.425 115.937 12.6353 115.166 13.0501C114.395 13.4707 113.776 14.1074 113.309 14.9603C112.841 15.819 112.613 16.8588 112.613 18.0855C112.613 19.3122 112.841 20.3812 113.297 21.2399C113.753 22.0986 114.36 22.7354 115.125 23.1501C115.891 23.5707 116.726 23.7752 117.637 23.7752C118.548 23.7752 119.407 23.5649 120.202 23.1326V23.1384Z" fill="black"/>
<path d="M128.905 7.48305C128.572 7.15008 128.403 6.74117 128.403 6.25632C128.403 5.77147 128.572 5.36256 128.905 5.02959C129.238 4.69663 129.647 4.52722 130.132 4.52722C130.617 4.52722 130.991 4.69663 131.318 5.02959C131.645 5.36256 131.809 5.77147 131.809 6.25632C131.809 6.74117 131.645 7.15008 131.318 7.48305C130.991 7.81601 130.594 7.98542 130.132 7.98542C129.671 7.98542 129.238 7.81601 128.905 7.48305ZM131.359 10.4681V25.7612H128.818V10.4681H131.359Z" fill="black"/>
<path d="M147.657 11.8817C148.808 13.0091 149.386 14.6272 149.386 16.7477V25.7612H146.874V17.1099C146.874 15.5852 146.494 14.4169 145.729 13.6108C144.964 12.8047 143.924 12.3957 142.604 12.3957C141.284 12.3957 140.197 12.8163 139.409 13.6517C138.62 14.487 138.223 15.7079 138.223 17.3085V25.7612H135.682V10.468H138.223V12.6469C138.725 11.8642 139.409 11.2625 140.273 10.8361C141.138 10.4096 142.09 10.1935 143.135 10.1935C144.993 10.1935 146.5 10.7543 147.657 11.8817Z" fill="black"/>
<path d="M156.641 12.5651V21.5786C156.641 22.3205 156.799 22.8463 157.114 23.1559C157.43 23.4655 157.979 23.6173 158.762 23.6173H160.631V25.767H158.341C156.927 25.767 155.864 25.4399 155.157 24.7915C154.451 24.1431 154.094 23.0682 154.094 21.5845V12.571H152.114V10.4797H154.094V6.63013H156.635V10.4797H160.625V12.571H156.635L156.641 12.5651Z" fill="black"/>
<path d="M165.958 25.4108C165.03 25.0135 164.293 24.4528 163.756 23.7342C163.219 23.0157 162.921 22.1979 162.862 21.2633H165.485C165.561 22.0285 165.917 22.6477 166.56 23.1326C167.203 23.6174 168.044 23.8569 169.084 23.8569C170.053 23.8569 170.813 23.6466 171.373 23.2143C171.934 22.7821 172.209 22.2446 172.209 21.5962C172.209 20.9478 171.911 20.4279 171.315 20.1008C170.719 19.7737 169.796 19.4524 168.552 19.1369C167.419 18.839 166.49 18.5353 165.777 18.2315C165.059 17.9219 164.445 17.4663 163.937 16.8646C163.423 16.2629 163.172 15.4626 163.172 14.4812C163.172 13.6985 163.406 12.9858 163.867 12.3315C164.334 11.6831 164.994 11.1632 165.847 10.7835C166.7 10.4038 167.682 10.2111 168.774 10.2111C170.468 10.2111 171.835 10.6375 172.875 11.4962C173.915 12.3549 174.475 13.5232 174.551 15.0128H172.01C171.952 14.2125 171.63 13.5699 171.046 13.0851C170.462 12.6003 169.674 12.3607 168.686 12.3607C167.775 12.3607 167.051 12.5535 166.507 12.9449C165.97 13.3363 165.701 13.8445 165.701 14.4812C165.701 14.9836 165.865 15.3984 166.192 15.7255C166.519 16.0526 166.928 16.3096 167.419 16.5082C167.909 16.701 168.593 16.923 169.469 17.1625C170.567 17.4604 171.461 17.7525 172.15 18.0387C172.84 18.325 173.43 18.7572 173.92 19.3356C174.411 19.9139 174.668 20.6674 174.686 21.5962C174.686 22.4316 174.452 23.1851 173.99 23.8569C173.523 24.5287 172.869 25.0544 172.022 25.4341C171.175 25.8138 170.205 26.0066 169.107 26.0066C167.933 26.0066 166.887 25.808 165.952 25.4049L165.958 25.4108Z" fill="black"/>
<path d="M15.9183 12.4016H11.7708L9.69702 13.5991V15.9942L13.8445 20.7842L17.992 15.9942V13.5991L15.9183 12.4016Z" fill="#2242E0"/>
<path d="M13.8562 0L0 7.99708V23.9971L2.42424 25.399V22.6009V18.0854V9.39905L13.8562 2.7981L25.2881 9.39905V22.6009L13.8562 29.2019L9.69113 26.7952V29.5933L13.8562 32L27.7123 23.9971V7.99708L13.8562 0Z" fill="#2242E0"/>
<path d="M13.8561 5.60205L4.84839 10.801V19.6743V21.199V23.9971V25.9365V26.801L7.26679 28.1972V25.9365V25.3991V22.5951V19.6743V17.215H7.27263V12.1972L13.8561 8.40015L20.4395 12.1972V19.797L13.8561 23.5999L9.69103 21.199V23.9971L13.8561 26.398L22.8637 21.199V10.801L13.8561 5.60205Z" fill="#2242E0"/>
</g>
<defs>
<clipPath id="clip0_18496_218">
<rect width="174.691" height="32" fill="white"/>
</clipPath>
</defs>
</svg>
