<svg width="24" height="24" viewBox="0 0 24 24" fill="none" xmlns="http://www.w3.org/2000/svg">
<path d="M8.90625 4.10625C8.90625 4.27194 9.04056 4.40625 9.20625 4.40625H19.2188V17.4188C19.2188 17.5844 19.3531 17.7188 19.5187 17.7188H20.7938C20.9594 17.7188 21.0938 17.5844 21.0938 17.4188V3.28125C21.0938 2.86704 20.758 2.53125 20.3438 2.53125H9.20625C9.04056 2.53125 8.90625 2.66556 8.90625 2.83125V4.10625ZM4.78125 8.34375V19.5938H15.2812V8.34375H4.78125ZM3.65625 21.4688C3.24204 21.4688 2.90625 21.133 2.90625 20.7188V7.21875C2.90625 6.80454 3.24204 6.46875 3.65625 6.46875H16.4062C16.8205 6.46875 17.1562 6.80454 17.1562 7.21875V20.7188C17.1562 21.133 16.8205 21.4688 16.4062 21.4688H3.65625Z" fill="#1A1A1A"/>
</svg>
