<svg viewBox="0 0 24 24" fill="none" xmlns="http://www.w3.org/2000/svg">
<rect x="5" y="9" width="14" height="7" fill="white"/>
<path fill-rule="evenodd" clip-rule="evenodd" d="M20.348 4.68665C23.0585 8.52216 24.3971 12.8485 23.8967 17.8291C23.8946 17.8502 23.8832 17.8695 23.8652 17.8822C21.8126 19.3328 19.8239 20.2132 17.8631 20.797C17.8318 20.8061 17.7979 20.7951 17.7788 20.7696C17.3258 20.1629 16.9142 19.5234 16.5536 18.8518C16.5329 18.8122 16.5518 18.7646 16.5944 18.749C17.2481 18.512 17.8697 18.2279 18.4676 17.8915C18.5147 17.8649 18.5177 17.8 18.4742 17.7688C18.3473 17.6781 18.2216 17.5828 18.1013 17.4875C18.0788 17.4699 18.0485 17.4665 18.023 17.4783C14.1413 19.2035 9.88909 19.2035 5.9615 17.4783C5.936 17.4673 5.9057 17.4711 5.8838 17.4884C5.7638 17.5837 5.6378 17.6781 5.5121 17.7688C5.4686 17.8 5.4722 17.8649 5.5196 17.8915C6.1175 18.2215 6.7391 18.512 7.3919 18.7502C7.4342 18.7658 7.4543 18.8122 7.4333 18.8518C7.0805 19.5243 6.6689 20.1638 6.2075 20.7704C6.1874 20.795 6.1544 20.8062 6.1232 20.797C4.1717 20.2132 2.18301 19.3328 0.130411 17.8822C0.113311 17.8695 0.101011 17.8493 0.0992107 17.8282C-0.318989 13.5201 0.53331 9.15794 3.6446 4.68578C3.6521 4.67395 3.6635 4.66471 3.6767 4.65922C5.2076 3.98301 6.8477 3.48553 8.5619 3.20142C8.5931 3.1968 8.6243 3.21066 8.6405 3.23722C8.8523 3.59813 9.0944 4.06097 9.2582 4.43921C11.0651 4.17357 12.9002 4.17357 14.7449 4.43921C14.9087 4.06905 15.1424 3.59813 15.3533 3.23722C15.3687 3.21019 15.4004 3.19575 15.4319 3.20142C17.147 3.48639 18.7871 3.98388 20.3168 4.65922C20.3303 4.66471 20.3414 4.67395 20.348 4.68665ZM10.1775 12.8782C10.1964 11.6047 9.23156 10.5508 8.02047 10.5508C6.81927 10.5508 5.86377 11.5954 5.86377 12.8782C5.86377 14.1608 6.83817 15.2054 8.02047 15.2054C9.22196 15.2054 10.1775 14.1608 10.1775 12.8782ZM18.1546 12.8782C18.1735 11.6047 17.2087 10.5508 15.9979 10.5508C14.7964 10.5508 13.8409 11.5954 13.8409 12.8782C13.8409 14.1608 14.8153 15.2054 15.9979 15.2054C17.2087 15.2054 18.1546 14.1608 18.1546 12.8782Z" fill="#5865F2"/>
</svg>
