<svg viewBox="0 0 24 25" fill="none" xmlns="http://www.w3.org/2000/svg">
<path d="M24 12.9562C24 6.30445 18.6274 0.912109 12 0.912109C5.37259 0.912109 0 6.30445 0 12.9562C0 18.6047 3.87432 23.3441 9.10109 24.6456V16.6367H6.62659V12.9562H9.10109V11.3703C9.10109 7.27087 10.9495 5.37079 14.9594 5.37079C15.7196 5.37079 17.0314 5.52038 17.568 5.67001V9.00642C17.2848 8.97651 16.7929 8.96152 16.1817 8.96152C14.214 8.96152 13.4538 9.70961 13.4538 11.6546V12.9562H17.3734L16.7001 16.6367H13.4538V24.9121C19.3955 24.1918 24 19.114 24 12.9562Z" fill="#0866FF"/>
</svg>
